# xmcd
#
# Track frame offsets: 
#        150
#        20148
#        39053
#        55990
#        80278
#        95635
#        134435
#        149995
#        172033
#        185965
#        206328
#        219683
#
# Disc length: 3419 seconds
#
# Revision: 0
# Processed by: cddbd v1.5.2PL0 Copyright (c) Steve Scherf et al.
# Submitted via: ExactAudioCopy v0.99pb4
#
DISCID=bb0d590c
DTITLE=The Dukes of Destiny - The Dukes of Destiny
DYEAR=1991
DGENRE=Blues
TTITLE0=I Take What I Want
TTITLE1=Good Stuff
TTITLE2=Natural Ball
TTITLE3=Night Life
TTITLE4=Tell Me What I Did Wrong
TTITLE5=Everything Gonna Be Allright
TTITLE6=Boom Boom
TTITLE7=Life in the Big City
TTITLE8=You're Humbuckin' Me
TTITLE9=That's What Love Will Make You Do
TTITLE10=Love Addiction
TTITLE11=Mama Talk to Your Daughter
EXTD=
EXTT0=
EXTT1=
EXTT2=
EXTT3=
EXTT4=
EXTT5=
EXTT6=
EXTT7=
EXTT8=
EXTT9=
EXTT10=
EXTT11=
PLAYORDER=
